<svg width="21" height="21" viewBox="0 0 21 21" fill="none" xmlns="http://www.w3.org/2000/svg">
<style>
        @media (prefers-color-scheme: dark) {
        :root {
        fill: #00CC14;
        }
        }
    </style>
    <symbol id="floppy" 
    stroke="currentColor"
    fill="currentColor">
<path d="M0 0V4.8461H1.61538V1.61538H3.23071V0H0Z"/>
<path d="M1.61538 4.8461H0V11.3076H1.61538V4.8461Z"/>
<path d="M1.61538 11.3076H0V17.7692H1.61538V11.3076Z"/>
<path d="M1.61538 17.7692H0V21H3.23071V19.3846H1.61538V17.7692Z"/>
<path d="M17.7693 1.61536V0H16.1539V1.61538L17.7693 1.61536L17.7693 3.23074H19.3846V1.61536L17.7693 1.61536Z"/>
<path d="M16.1539 0V1.61538L16.1538 4.8461H14.5384V1.61538L12.9231 1.61538V4.8461H11.3077V1.61538H9.69235V0H16.1539Z"/>
<path d="M9.69235 0V1.61538L4.84619 1.61538V4.8461H3.23081L3.23071 1.61538V0H9.69235Z"/>
<path d="M4.84619 6.46155V4.8461H3.23081V8.07693L9.69226 8.07693V6.46155H4.84619Z"/>
<path d="M16.1538 4.8461H14.5384V6.46155H12.9231V4.8461H11.3077V6.46155H9.69226V8.07693H16.1538V4.8461Z"/>
<path d="M17.7693 11.3077H16.1539V12.9231V17.7692H17.7693V11.3077Z"/>
<path d="M16.1539 11.3077V12.9231L9.69235 12.9231V11.3077H16.1539Z"/>
<path d="M9.69235 11.3077V12.9231L4.84619 12.9231V17.7692H3.23081V11.3077H9.69235Z"/>
<path d="M4.84619 17.7692V19.3846H9.69226V21H3.23071V19.3846L3.23081 17.7692H4.84619Z"/>
<path d="M17.7693 17.7692V19.3846H19.3846V16.1539H21V21L16.1539 21V19.3847V17.7692H17.7693Z"/>
<path d="M16.1539 19.3847V21H9.69226V19.3846L16.1539 19.3847Z"/>
<path d="M21 16.1539H19.3846V9.69235H21V16.1539Z"/>
<path d="M21 9.69235H19.3846L19.3846 3.23074L21 3.23081V9.69235Z"/>
</symbol>
</svg>
